<svg xmlns="http://www.w3.org/2000/svg" xmlns:xlink="http://www.w3.org/1999/xlink" contentStyleType="text/css" height="2391px" preserveAspectRatio="none" style="width:677px;height:2391px;background:#FFFFFF;" version="1.1" viewBox="0 0 677 2391" width="677px" zoomAndPan="magnify"><title>Use Case Diagram - Healthcare System - Sprint 1</title><defs/><g><text fill="#000000" font-family="sans-serif" font-size="14" font-weight="bold" lengthAdjust="spacing" textLength="386.9756" x="138.2672" y="22.9951">Use Case Diagram - Healthcare System - Sprint 1</text><!--cluster actors--><g id="cluster_actors"><rect fill="none" height="571" rx="2.5" ry="2.5" style="stroke:#000000;stroke-width:1.0;" width="199.67" x="7" y="738.2969"/><text fill="#000000" font-family="sans-serif" font-size="14" font-weight="bold" lengthAdjust="spacing" textLength="113.873" x="49.8985" y="753.292">System Actors</text></g><!--cluster usecases--><g id="cluster_usecases"><rect fill="none" height="2341" rx="2.5" ry="2.5" style="stroke:#000000;stroke-width:1.0;" width="436.84" x="234.67" y="44.2969"/><text fill="#000000" font-family="sans-serif" font-size="14" font-weight="bold" lengthAdjust="spacing" textLength="79.9531" x="413.1134" y="59.292">Use Cases</text></g><!--entity Admin--><g id="elem_Admin"><ellipse cx="106.8321" cy="1225.6469" fill="#F1F1F1" rx="8" ry="8" style="stroke:#181818;stroke-width:0.5;"/><path d="M106.8321,1233.6469 L106.8321,1260.6469 M93.8321,1241.6469 L119.8321,1241.6469 M106.8321,1260.6469 L93.8321,1275.6469 M106.8321,1260.6469 L119.8321,1275.6469 " fill="none" style="stroke:#181818;stroke-width:0.5;"/><text fill="#000000" font-family="sans-serif" font-size="14" lengthAdjust="spacing" textLength="44.8643" x="84.4" y="1290.142">Admin</text></g><!--entity User--><g id="elem_User"><ellipse cx="106.8351" cy="1114.6469" fill="#F1F1F1" rx="8" ry="8" style="stroke:#181818;stroke-width:0.5;"/><path d="M106.8351,1122.6469 L106.8351,1149.6469 M93.8351,1130.6469 L119.8351,1130.6469 M106.8351,1149.6469 L93.8351,1164.6469 M106.8351,1149.6469 L119.8351,1164.6469 " fill="none" style="stroke:#181818;stroke-width:0.5;"/><text fill="#000000" font-family="sans-serif" font-size="14" lengthAdjust="spacing" textLength="31.9102" x="90.88" y="1179.142">User</text></g><!--entity Patient--><g id="elem_Patient"><ellipse cx="106.828" cy="1003.6469" fill="#F1F1F1" rx="8" ry="8" style="stroke:#181818;stroke-width:0.5;"/><path d="M106.828,1011.6469 L106.828,1038.6469 M93.828,1019.6469 L119.828,1019.6469 M106.828,1038.6469 L93.828,1053.6469 M106.828,1038.6469 L119.828,1053.6469 " fill="none" style="stroke:#181818;stroke-width:0.5;"/><text fill="#000000" font-family="sans-serif" font-size="14" lengthAdjust="spacing" textLength="49.376" x="82.14" y="1068.142">Patient</text></g><!--entity Doctor--><g id="elem_Doctor"><ellipse cx="106.8368" cy="892.6469" fill="#F1F1F1" rx="8" ry="8" style="stroke:#181818;stroke-width:0.5;"/><path d="M106.8368,900.6469 L106.8368,927.6469 M93.8368,908.6469 L119.8368,908.6469 M106.8368,927.6469 L93.8368,942.6469 M106.8368,927.6469 L119.8368,942.6469 " fill="none" style="stroke:#181818;stroke-width:0.5;"/><text fill="#000000" font-family="sans-serif" font-size="14" lengthAdjust="spacing" textLength="46.8535" x="83.41" y="957.142">Doctor</text></g><!--entity Non Authenticated User--><g id="elem_Non Authenticated User"><ellipse cx="106.8325" cy="781.6469" fill="#F1F1F1" rx="8" ry="8" style="stroke:#181818;stroke-width:0.5;"/><path d="M106.8325,789.6469 L106.8325,816.6469 M93.8325,797.6469 L119.8325,797.6469 M106.8325,816.6469 L93.8325,831.6469 M106.8325,816.6469 L119.8325,831.6469 " fill="none" style="stroke:#181818;stroke-width:0.5;"/><text fill="#000000" font-family="sans-serif" font-size="14" lengthAdjust="spacing" textLength="167.665" x="23" y="846.142">Non Authenticated User</text></g><g id="elem_UC1"><ellipse cx="453.0876" cy="1860.2984" fill="#F1F1F1" rx="155.1576" ry="33.4315" style="stroke:#181818;stroke-width:0.5;"/><text fill="#000000" font-family="sans-serif" font-size="14" lengthAdjust="spacing" textLength="281.2031" x="312.4861" y="1863.1451">US_5.1.1: Register new backoffice users</text></g><g id="elem_UC2"><ellipse cx="453.0943" cy="1057.2957" fill="#F1F1F1" rx="120.3943" ry="26.4789" style="stroke:#181818;stroke-width:0.5;"/><text fill="#000000" font-family="sans-serif" font-size="14" lengthAdjust="spacing" textLength="208.1953" x="348.9966" y="1060.1424">US_5.1.2: Reset my password</text></g><g id="elem_UC3"><ellipse cx="453.0897" cy="956.2948" fill="#F1F1F1" rx="184.3397" ry="39.2679" style="stroke:#181818;stroke-width:0.5;"/><text fill="#000000" font-family="sans-serif" font-size="14" lengthAdjust="spacing" textLength="341.4072" x="282.3861" y="959.1415">US_5.1.3: Register for the healthcare application</text></g><g id="elem_UC4"><ellipse cx="453.0939" cy="745.3016" fill="#F1F1F1" rx="119.1739" ry="26.2348" style="stroke:#181818;stroke-width:0.5;"/><text fill="#000000" font-family="sans-serif" font-size="14" lengthAdjust="spacing" textLength="205.5908" x="350.2985" y="748.1483">US_5.1.4: Update user profile</text></g><g id="elem_UC5"><ellipse cx="453.0915" cy="641.3012" fill="#F1F1F1" rx="202.4215" ry="42.8843" style="stroke:#181818;stroke-width:0.5;"/><text fill="#000000" font-family="sans-serif" font-size="14" lengthAdjust="spacing" textLength="378.4307" x="263.8762" y="644.1479">US_5.1.5: Delete account and associated data (GDPR)</text></g><g id="elem_UC6"><ellipse cx="453.0906" cy="114.293" fill="#F1F1F1" rx="165.0306" ry="35.4061" style="stroke:#181818;stroke-width:0.5;"/><text fill="#000000" font-family="sans-serif" font-size="14" lengthAdjust="spacing" textLength="301.6494" x="302.2659" y="117.1397">US_5.1.6: Log in to the system (backoffice)</text></g><g id="elem_UC7"><ellipse cx="453.0907" cy="844.301" fill="#F1F1F1" rx="175.0707" ry="37.4141" style="stroke:#181818;stroke-width:0.5;"/><text fill="#000000" font-family="sans-serif" font-size="14" lengthAdjust="spacing" textLength="322.3555" x="291.913" y="847.1477">US_5.1.7: Log in with external IAM credentials</text></g><g id="elem_UC8"><ellipse cx="453.087" cy="1759.2923" fill="#F1F1F1" rx="148.527" ry="32.1054" style="stroke:#181818;stroke-width:0.5;"/><text fill="#000000" font-family="sans-serif" font-size="14" lengthAdjust="spacing" textLength="267.415" x="319.3795" y="1762.139">US_5.1.8: Create a new patient profile</text></g><g id="elem_UC9"><ellipse cx="453.0947" cy="1658.2978" fill="#F1F1F1" rx="155.9547" ry="33.5909" style="stroke:#181818;stroke-width:0.5;"/><text fill="#000000" font-family="sans-serif" font-size="14" lengthAdjust="spacing" textLength="282.8574" x="311.666" y="1661.1445">US_5.1.9: Edit an existing patient profile</text></g><g id="elem_UC10"><ellipse cx="453.0867" cy="1560.2922" fill="#F1F1F1" rx="136.4267" ry="29.6853" style="stroke:#181818;stroke-width:0.5;"/><text fill="#000000" font-family="sans-serif" font-size="14" lengthAdjust="spacing" textLength="242.1084" x="332.0325" y="1563.1389">US_5.1.10: Delete a patient profile</text></g><g id="elem_UC11"><ellipse cx="453.0928" cy="2337.2954" fill="#F1F1F1" rx="148.7928" ry="32.1586" style="stroke:#181818;stroke-width:0.5;"/><text fill="#000000" font-family="sans-serif" font-size="14" lengthAdjust="spacing" textLength="267.9688" x="319.1085" y="2340.1421">US_5.1.11: List/Search patient profiles</text></g><g id="elem_UC12"><ellipse cx="453.0907" cy="2239.293" fill="#F1F1F1" rx="143.8807" ry="31.1761" style="stroke:#181818;stroke-width:0.5;"/><text fill="#000000" font-family="sans-serif" font-size="14" lengthAdjust="spacing" textLength="257.7217" x="324.2299" y="2242.1397">US_5.1.12: Create a new staff profile</text></g><g id="elem_UC13"><ellipse cx="453.0895" cy="2147.3008" fill="#F1F1F1" rx="118.7195" ry="26.1439" style="stroke:#181818;stroke-width:0.5;"/><text fill="#000000" font-family="sans-serif" font-size="14" lengthAdjust="spacing" textLength="204.6201" x="350.7794" y="2150.1474">US_5.1.13: Edit a staff profile</text></g><g id="elem_UC14"><ellipse cx="453.0931" cy="2055.3015" fill="#F1F1F1" rx="141.8731" ry="30.7746" style="stroke:#181818;stroke-width:0.5;"/><text fill="#000000" font-family="sans-serif" font-size="14" lengthAdjust="spacing" textLength="253.5244" x="326.3309" y="2058.1482">US_5.1.14: Deactivate a staff profile</text></g><g id="elem_UC15"><ellipse cx="453.0877" cy="1959.2944" fill="#F1F1F1" rx="139.8877" ry="30.3775" style="stroke:#181818;stroke-width:0.5;"/><text fill="#000000" font-family="sans-serif" font-size="14" lengthAdjust="spacing" textLength="249.3682" x="328.4037" y="1962.1411">US_5.1.15: List/Search staff profiles</text></g><g id="elem_UC16"><ellipse cx="453.0904" cy="319.297" fill="#F1F1F1" rx="131.1004" ry="28.6201" style="stroke:#181818;stroke-width:0.5;"/><text fill="#000000" font-family="sans-serif" font-size="14" lengthAdjust="spacing" textLength="230.8975" x="337.6417" y="322.1436">US_5.1.16: Request an operation</text></g><g id="elem_UC17"><ellipse cx="453.0872" cy="220.2923" fill="#F1F1F1" rx="165.4772" ry="35.4954" style="stroke:#181818;stroke-width:0.5;"/><text fill="#000000" font-family="sans-serif" font-size="14" lengthAdjust="spacing" textLength="302.5723" x="301.8011" y="223.139">US_5.1.17: Update an operation requisition</text></g><g id="elem_UC18"><ellipse cx="453.0918" cy="527.2952" fill="#F1F1F1" rx="168.7418" ry="36.1484" style="stroke:#181818;stroke-width:0.5;"/><text fill="#000000" font-family="sans-serif" font-size="14" lengthAdjust="spacing" textLength="309.3125" x="298.4356" y="530.1419">US_5.1.18: Remove an operation requisition</text></g><g id="elem_UC19"><ellipse cx="453.0901" cy="419.2929" fill="#F1F1F1" rx="171.4301" ry="36.686" style="stroke:#181818;stroke-width:0.5;"/><text fill="#000000" font-family="sans-serif" font-size="14" lengthAdjust="spacing" textLength="314.8564" x="295.6619" y="422.1396">US_5.1.19: List/Search operation requisitions</text></g><g id="elem_UC20"><ellipse cx="453.0852" cy="1462.2999" fill="#F1F1F1" rx="154.8152" ry="33.363" style="stroke:#181818;stroke-width:0.5;"/><text fill="#000000" font-family="sans-serif" font-size="14" lengthAdjust="spacing" textLength="280.4922" x="312.8391" y="1465.1466">US_5.1.20: Add new types of operations</text></g><g id="elem_UC21"><ellipse cx="453.0937" cy="1360.2976" fill="#F1F1F1" rx="155.2037" ry="33.4407" style="stroke:#181818;stroke-width:0.5;"/><text fill="#000000" font-family="sans-serif" font-size="14" lengthAdjust="spacing" textLength="281.2988" x="312.4443" y="1363.1443">US_5.1.21: Edit existing operation types</text></g><g id="elem_UC22"><ellipse cx="453.0933" cy="1255.2955" fill="#F1F1F1" rx="172.1433" ry="36.8287" style="stroke:#181818;stroke-width:0.5;"/><text fill="#000000" font-family="sans-serif" font-size="14" lengthAdjust="spacing" textLength="316.3262" x="294.9302" y="1258.1422">US_5.1.22: Remove obsolete operation types</text></g><g id="elem_UC23"><ellipse cx="453.0927" cy="1151.2934" fill="#F1F1F1" rx="150.7827" ry="32.5565" style="stroke:#181818;stroke-width:0.5;"/><text fill="#000000" font-family="sans-serif" font-size="14" lengthAdjust="spacing" textLength="272.1113" x="317.0371" y="1154.1401">US_5.1.23: List/Search operation types</text></g><!--link Admin to UC1--><g id="link_Admin_UC1"><path d="M110.79,1293.7969 C120.28,1406.9969 153.69,1735.5069 226.67,1809.2969 C247.33,1830.1969 268.8584,1841.6671 297.2984,1849.7471 " fill="none" id="Admin-to-UC1" style="stroke:#181818;stroke-width:1.0;"/><polygon fill="#181818" points="303.07,1851.3869,295.5058,1845.0795,298.2603,1850.0204,293.3195,1852.775,303.07,1851.3869" style="stroke:#181818;stroke-width:1.0;"/></g><!--link Admin to UC8--><g id="link_Admin_UC8"><path d="M112.74,1293.8269 C126.11,1392.5869 166.22,1651.0869 226.67,1709.2969 C248.97,1730.7769 272.5304,1742.3473 302.6704,1750.1273 " fill="none" id="Admin-to-UC8" style="stroke:#181818;stroke-width:1.0;"/><polygon fill="#181818" points="308.48,1751.6269,300.7654,1745.5044,303.6387,1750.3772,298.7659,1753.2505,308.48,1751.6269" style="stroke:#181818;stroke-width:1.0;"/></g><!--link Admin to UC9--><g id="link_Admin_UC9"><path d="M109.1,1293.8969 C113.68,1366.6069 134.34,1524.0369 226.67,1607.2969 C248.49,1626.9769 270.4998,1637.9679 299.0598,1645.9179 " fill="none" id="Admin-to-UC9" style="stroke:#181818;stroke-width:1.0;"/><polygon fill="#181818" points="304.84,1647.5269,297.2423,1641.2599,300.0231,1646.186,295.097,1648.9669,304.84,1647.5269" style="stroke:#181818;stroke-width:1.0;"/></g><!--link Admin to UC10--><g id="link_Admin_UC10"><path d="M114.28,1293.4969 C126.01,1350.5769 156.45,1457.3969 226.67,1513.2969 C253.09,1534.3369 280.7701,1545.3644 313.8401,1552.3644 " fill="none" id="Admin-to-UC10" style="stroke:#181818;stroke-width:1.0;"/><polygon fill="#181818" points="319.71,1553.6069,311.7334,1547.8298,314.8184,1552.5715,310.0768,1555.6564,319.71,1553.6069" style="stroke:#181818;stroke-width:1.0;"/></g><!--link Admin to UC11--><g id="link_Admin_UC11"><path d="M109.64,1293.7569 C118.37,1472.0969 158.52,2213.0169 226.67,2288.2969 C247.29,2311.0869 270.0037,2323.1045 299.8337,2330.8745 " fill="none" id="Admin-to-UC11" style="stroke:#181818;stroke-width:1.0;"/><polygon fill="#181818" points="305.64,2332.3869,297.9389,2326.2474,300.8014,2331.1265,295.9223,2333.9891,305.64,2332.3869" style="stroke:#181818;stroke-width:1.0;"/></g><!--link Admin to UC12--><g id="link_Admin_UC12"><path d="M110.11,1293.7469 C120.41,1461.5069 164.74,2123.9669 226.67,2191.2969 C248.34,2214.8569 272.6445,2226.9816 303.8445,2234.4416 " fill="none" id="Admin-to-UC12" style="stroke:#181818;stroke-width:1.0;"/><polygon fill="#181818" points="309.68,2235.8369,301.8569,2229.8536,304.8171,2234.6741,299.9965,2237.6343,309.68,2235.8369" style="stroke:#181818;stroke-width:1.0;"/></g><!--link Admin to UC13--><g id="link_Admin_UC13"><path d="M107.55,1293.8469 C107.27,1443.6469 114.17,1984.6169 226.67,2103.2969 C254.44,2132.5969 289.5479,2144.8504 329.0479,2149.8704 " fill="none" id="Admin-to-UC13" style="stroke:#181818;stroke-width:1.0;"/><polygon fill="#181818" points="335,2150.6269,326.5761,2145.5241,330.0399,2149.9965,325.5675,2153.4603,335,2150.6269" style="stroke:#181818;stroke-width:1.0;"/></g><!--link Admin to UC14--><g id="link_Admin_UC14"><path d="M108.37,1293.6469 C111.1,1432.0269 127.64,1902.8769 226.67,2007.2969 C249.1,2030.9569 274.2541,2043.0656 306.0941,2050.4256 " fill="none" id="Admin-to-UC14" style="stroke:#181818;stroke-width:1.0;"/><polygon fill="#181818" points="311.94,2051.7769,304.0721,2045.8527,307.0685,2050.6508,302.2704,2053.6472,311.94,2051.7769" style="stroke:#181818;stroke-width:1.0;"/></g><!--link Admin to UC15--><g id="link_Admin_UC15"><path d="M109.33,1293.5169 C115.1,1419.9869 140.04,1821.9769 226.67,1911.2969 C249.72,1935.0669 275.566,1947.1713 307.916,1954.4413 " fill="none" id="Admin-to-UC15" style="stroke:#181818;stroke-width:1.0;"/><polygon fill="#181818" points="313.77,1955.7569,305.866,1949.8809,308.8917,1954.6606,304.112,1957.6862,313.77,1955.7569" style="stroke:#181818;stroke-width:1.0;"/></g><!--link Admin to UC20--><g id="link_Admin_UC20"><path d="M127.04,1293.9369 C146.97,1329.9369 181.55,1382.3069 226.67,1411.2969 C252.91,1428.1669 278.1871,1438.0397 308.7671,1445.6397 " fill="none" id="Admin-to-UC20" style="stroke:#181818;stroke-width:1.0;"/><polygon fill="#181818" points="314.59,1447.0869,306.8205,1441.0342,309.7376,1445.8809,304.8909,1448.7981,314.59,1447.0869" style="stroke:#181818;stroke-width:1.0;"/></g><!--link Admin to UC21--><g id="link_Admin_UC21"><path d="M129.63,1266.8369 C153.05,1278.8469 191.66,1297.5169 226.67,1309.2969 C261.08,1320.8769 293.4827,1329.3362 328.5627,1337.1262 " fill="none" id="Admin-to-UC21" style="stroke:#181818;stroke-width:1.0;"/><polygon fill="#181818" points="334.42,1338.4269,326.5012,1332.5709,329.5389,1337.343,324.7669,1340.3807,334.42,1338.4269" style="stroke:#181818;stroke-width:1.0;"/></g><!--link Admin to UC22--><g id="link_Admin_UC22"><path d="M129.63,1255.2969 C160.74,1255.2969 214.78,1255.2969 274.69,1255.2969 " fill="none" id="Admin-to-UC22" style="stroke:#181818;stroke-width:1.0;"/><polygon fill="#181818" points="280.69,1255.2969,271.69,1251.2969,275.69,1255.2969,271.69,1259.2969,280.69,1255.2969" style="stroke:#181818;stroke-width:1.0;"/></g><!--link Admin to UC23--><g id="link_Admin_UC23"><path d="M129.62,1243.7269 C153.03,1231.6969 191.63,1212.9969 226.67,1201.2969 C261.64,1189.6069 294.7356,1181.1354 330.2856,1173.4454 " fill="none" id="Admin-to-UC23" style="stroke:#181818;stroke-width:1.0;"/><polygon fill="#181818" points="336.15,1172.1769,326.5078,1170.1701,331.263,1173.234,328.1992,1177.9893,336.15,1172.1769" style="stroke:#181818;stroke-width:1.0;"/></g><!--link User to UC2--><g id="link_User_UC2"><path d="M122.97,1137.9669 C145.32,1128.8069 188.6,1111.8269 226.67,1101.2969 C268.17,1089.8069 308.8671,1081.2621 348.8871,1073.9721 " fill="none" id="User-to-UC2" style="stroke:#181818;stroke-width:1.0;"/><polygon fill="#181818" points="354.79,1072.8969,345.2189,1070.5745,349.8709,1073.7929,346.6525,1078.445,354.79,1072.8969" style="stroke:#181818;stroke-width:1.0;"/></g><!--link Patient to UC3--><g id="link_Patient_UC3"><path d="M131.77,1027.9469 C171.41,1019.0769 247.5346,1002.0463 318.6346,986.1463 " fill="none" id="Patient-to-UC3" style="stroke:#181818;stroke-width:1.0;"/><polygon fill="#181818" points="324.49,984.8369,314.834,982.8974,319.6105,985.9281,316.5799,990.7046,324.49,984.8369" style="stroke:#181818;stroke-width:1.0;"/></g><!--link Patient to UC4--><g id="link_Patient_UC4"><path d="M131.59,1028.3069 C156.89,1021.6269 195.82,1007.0969 214.67,978.2969 C237.71,943.0769 198.89,820.9169 226.67,789.2969 C253.64,758.5869 289.1917,746.123 329.2717,741.373 " fill="none" id="Patient-to-UC4" style="stroke:#181818;stroke-width:1.0;"/><polygon fill="#181818" points="335.23,740.6669,325.8218,737.7539,330.2647,741.2553,326.7633,745.6983,335.23,740.6669" style="stroke:#181818;stroke-width:1.0;"/></g><!--link Patient to UC5--><g id="link_Patient_UC5"><path d="M131.7,1028.3769 C157.09,1021.7569 196.11,1007.2869 214.67,978.2969 C231.27,952.3469 207.37,725.3069 226.67,701.2969 C240.17,684.4869 252.3865,674.622 271.8565,665.502 " fill="none" id="Patient-to-UC5" style="stroke:#181818;stroke-width:1.0;"/><polygon fill="#181818" points="277.29,662.9569,267.4431,663.1522,272.7621,665.0778,270.8365,670.3968,277.29,662.9569" style="stroke:#181818;stroke-width:1.0;"/></g><!--link Patient to UC7--><g id="link_Patient_UC7"><path d="M131.57,1027.8569 C156.47,1020.8369 194.7,1006.0769 214.67,978.2969 C235.39,949.4569 202.69,925.4969 226.67,899.2969 C244,880.3469 261.0329,869.4542 285.3229,860.7342 " fill="none" id="Patient-to-UC7" style="stroke:#181818;stroke-width:1.0;"/><polygon fill="#181818" points="290.97,858.7069,281.1478,857.9831,286.2641,860.3963,283.8508,865.5126,290.97,858.7069" style="stroke:#181818;stroke-width:1.0;"/></g><!--link Non Authenticated User to UC6--><g id="link_Non Authenticated User_UC6"><path d="M109.56,772.9769 C115.97,648.0469 142.56,255.5769 226.67,167.2969 C245.59,147.4269 264.7374,136.2215 291.0174,127.7815 " fill="none" id="Non Authenticated User-to-UC6" style="stroke:#181818;stroke-width:1.0;"/><polygon fill="#181818" points="296.73,125.9469,286.938,124.8904,291.9695,127.4757,289.3842,132.5073,296.73,125.9469" style="stroke:#181818;stroke-width:1.0;"/></g><!--link Doctor to UC16--><g id="link_Doctor_UC16"><path d="M130.43,917.7969 C155.87,911.4069 196.06,896.9969 214.67,867.2969 C229.47,843.6569 208.76,386.6969 226.67,365.2969 C250.25,337.1169 280.0765,324.2619 316.1965,318.0619 " fill="none" id="Doctor-to-UC16" style="stroke:#181818;stroke-width:1.0;"/><polygon fill="#181818" points="322.11,317.0469,312.563,314.6271,317.1821,317.8928,313.9164,322.5118,322.11,317.0469" style="stroke:#181818;stroke-width:1.0;"/></g><!--link Doctor to UC17--><g id="link_Doctor_UC17"><path d="M130.45,917.8069 C155.9,911.4269 196.11,897.0269 214.67,867.2969 C232.14,839.2969 205.91,298.9569 226.67,273.2969 C243.73,252.1969 261.7848,240.4548 287.4848,231.7848 " fill="none" id="Doctor-to-UC17" style="stroke:#181818;stroke-width:1.0;"/><polygon fill="#181818" points="293.17,229.8669,283.3636,228.9536,288.4323,231.4651,285.9208,236.5339,293.17,229.8669" style="stroke:#181818;stroke-width:1.0;"/></g><!--link Doctor to UC18--><g id="link_Doctor_UC18"><path d="M130.33,917.7369 C155.68,911.2869 195.79,896.8269 214.67,867.2969 C231.79,840.4969 206.45,605.8469 226.67,581.2969 C243.61,560.7169 261.2136,549.1397 286.4036,540.3697 " fill="none" id="Doctor-to-UC18" style="stroke:#181818;stroke-width:1.0;"/><polygon fill="#181818" points="292.07,538.3969,282.2552,537.5784,287.348,540.0409,284.8856,545.1336,292.07,538.3969" style="stroke:#181818;stroke-width:1.0;"/></g><!--link Doctor to UC19--><g id="link_Doctor_UC19"><path d="M130.4,917.7769 C155.8,911.3569 195.96,896.9369 214.67,867.2969 C238.04,830.2569 199.02,507.2669 226.67,473.2969 C243.05,453.1669 259.8459,441.7825 284.2459,432.9825 " fill="none" id="Doctor-to-UC19" style="stroke:#181818;stroke-width:1.0;"/><polygon fill="#181818" points="289.89,430.9469,280.0667,430.2375,285.1865,432.6432,282.7808,437.763,289.89,430.9469" style="stroke:#181818;stroke-width:1.0;"/></g><!--SRC=[XLNBRjim4BphAnO-fOSyAFbzAE3QHLiWBO8OEHUCj9A9oA92qacD8l_UfKp95asZFjZcW3Fx6fBwHLGrLtmBDKzVU85hioyH5AQ6LqM9aUusT1ZyZO0-NwJAK2rbAHKybyIEFgB824CRdZJ2ajFNIl32Sg_XE_BIR5Ak4DPxRT1Ywrg9oW2BeX9p0qQ24iN6G2PiB26hA3e67JZQ8ZLIwG5m3Rpvwz9f5Z1OP5jH3KuHIaRrW0Tk15QcXwsa_Ur1lsG5YvtPq5QHSeCP79G-UbcrfHuoscbCxSBbv9QqQ_rxTCDks1mUiH1KXu8At-6PkYRpNAHejxggdfOiI8ujMQE1xPw6fVKxzTyHuY0XEOcMKqLK2coEO-1rNTh2gCzE9WdA3EVmL6VKW2P7g9NCHOcECWnIHdDOOOb4uMagTpHZNcL4q38LJIT9ZiFLjzN3uoSdD0eAZUTmBmiGbJM7pLyVJ71rx5mhC0uAJ3g1Ts4sW7-e6HKluSVY9wGACpjSNhQDdmGrfdDOAhGDuCtKweD_l4vCWzpP7BvcmjPFiMaKeYeky6TXnzmTMtc1oEx2J3BRFKMyNIDNwSOdTruBcut5Nj7Qy3pt8uTznvAsw30hR3Csj9NIsHDlXwX1RjXlRDIljKVjAWrRZ8tjCNdTeMwc96jKfsU2XNt59jsfE2NH9Vcw4rgS2eHDnQOsx5Q-_LyWx2mswzSSbEXg3xih9dSjigmPiDdNT6_9_2ZKakEmmMBcnjmP-vX28zRIBrndSTS0-QnbO_4B0c6RnScb1lJ8IMHlRFSkmFNrv-Q2xQ-dtdhcxx_p0L-1Ze8793umz86H1yH-bDYF4ljHR7M71wu5QDs-RmvApf3X6J8wGoOaTE45T3l6jCCzcsr5upDaSePCpv3PFm00]--></g></svg>